# xmcd CD database file
#
# Track frame offsets:
#	150
#	12008
#	24540
#	44103
#	53949
#	62889
#	73839
#	86670
#	96124
#	109898
#	121305
#	132712
#	142424
#	155810
#	168641
#
# Disc length: 2480 seconds
#
# Revision: 0
# Processed by: cddbd v1.5.1PL0 Copyright (c) Steve Scherf et al.
# Submitted via: CDex 1.51
#
DISCID=eb09ae0f
DTITLE=Johnny Paycheck - Take This Job And Shove It
DYEAR=1900
DGENRE=Country
TTITLE0=Take This Job And Shove It
TTITLE1=She Thinks I Still Care
TTITLE2=Sunday Mornin' Coming Down
TTITLE3=The Race Is On
TTITLE4=The Johnsons of Turkey Ridge
TTITLE5=Walk Through This World
TTITLE6=White Lightin'
TTITLE7=Mr Lovemaker
TTITLE8=I'm The Only Hell My Mama Ever Raised
TTITLE9=Tender Years
TTITLE10=Make Me One More Memory
TTITLE11=I'm Remembering
TTITLE12=When The Grass Grows Over Me
TTITLE13=Don't Take Her She's All I Got
TTITLE14=Come Home To My Heart
EXTD=
EXTT0=
EXTT1=
EXTT2=
EXTT3=
EXTT4=
EXTT5=
EXTT6=
EXTT7=
EXTT8=
EXTT9=
EXTT10=
EXTT11=
EXTT12=
EXTT13=
EXTT14=
PLAYORDER=
